<?xml version="1.0" encoding="UTF-8" standalone="no"?>
<!-- Created with Inkscape (http://www.inkscape.org/) -->

<svg
   xmlns:dc="http://purl.org/dc/elements/1.1/"
   xmlns:cc="http://creativecommons.org/ns#"
   xmlns:rdf="http://www.w3.org/1999/02/22-rdf-syntax-ns#"
   xmlns:svg="http://www.w3.org/2000/svg"
   xmlns="http://www.w3.org/2000/svg"
   xmlns:sodipodi="http://sodipodi.sourceforge.net/DTD/sodipodi-0.dtd"
   xmlns:inkscape="http://www.inkscape.org/namespaces/inkscape"
   width="700"
   height="700"
   id="svg2"
   version="1.1"
   inkscape:version="0.48.2 r9819"
   sodipodi:docname="FetOpenUI.svg">
  <defs
     id="defs4" />
  <sodipodi:namedview
     id="base"
     pagecolor="#ffffff"
     bordercolor="#666666"
     borderopacity="1.0"
     inkscape:pageopacity="0"
     inkscape:pageshadow="2"
     inkscape:zoom="1"
     inkscape:cx="364.27744"
     inkscape:cy="280"
     inkscape:document-units="px"
     inkscape:current-layer="layer1"
     showgrid="false"
     inkscape:window-width="1408"
     inkscape:window-height="1052"
     inkscape:window-x="94"
     inkscape:window-y="0"
     inkscape:window-maximized="0" />
  <metadata
     id="metadata7">
    <rdf:RDF>
      <cc:Work
         rdf:about="">
        <dc:format>image/svg+xml</dc:format>
        <dc:type
           rdf:resource="http://purl.org/dc/dcmitype/StillImage" />
        <dc:title />
      </cc:Work>
    </rdf:RDF>
  </metadata>
  <g
     inkscape:label="Layer 1"
     inkscape:groupmode="layer"
     id="layer1"
     transform="translate(0,-352.36218)">
    <path
       style="fill:#000000;fill-opacity:0.05882353;fill-rule:evenodd;stroke:#ffffff;stroke-width:60;stroke-linecap:round;stroke-linejoin:miter;stroke-miterlimit:4;stroke-opacity:0.9372549;stroke-dasharray:none"
       d="m 277,452.36218 c -9.418,0 -17,7.582 -17,17 l 0,143 -143,0 c -9.418,0 -17,7.582 -17,17 l 0,146 c 0,9.418 7.582,17 17,17 l 143,0 0,143 c 0,9.418 7.582,17 17,17 l 146,0 c 9.418,0 17,-7.582 17,-17 l 0,-143 143,0 c 9.418,0 17,-7.582 17,-17 l 0,-146 c 0,-9.418 -7.582,-17 -17,-17 l -143,0 0,-143 c 0,-9.418 -7.582,-17 -17,-17 l -146,0 z"
       id="rect2985"
       inkscape:connector-curvature="0" />
  </g>
</svg>
