<?xml version="1.0" encoding="UTF-8" standalone="no"?>
<!-- Created with Inkscape (http://www.inkscape.org/) -->

<svg
   xmlns:dc="http://purl.org/dc/elements/1.1/"
   xmlns:cc="http://creativecommons.org/ns#"
   xmlns:rdf="http://www.w3.org/1999/02/22-rdf-syntax-ns#"
   xmlns:svg="http://www.w3.org/2000/svg"
   xmlns="http://www.w3.org/2000/svg"
   xmlns:sodipodi="http://sodipodi.sourceforge.net/DTD/sodipodi-0.dtd"
   xmlns:inkscape="http://www.inkscape.org/namespaces/inkscape"
   width="700"
   height="700"
   id="svg2"
   version="1.1"
   inkscape:version="0.48.2 r9819"
   sodipodi:docname="FetPause.svg">
  <defs
     id="defs4" />
  <sodipodi:namedview
     id="base"
     pagecolor="#ffffff"
     bordercolor="#666666"
     borderopacity="1.0"
     inkscape:pageopacity="0"
     inkscape:pageshadow="2"
     inkscape:zoom="1"
     inkscape:cx="187.27744"
     inkscape:cy="280"
     inkscape:document-units="px"
     inkscape:current-layer="layer1"
     showgrid="false"
     inkscape:window-width="1408"
     inkscape:window-height="1036"
     inkscape:window-x="94"
     inkscape:window-y="0"
     inkscape:window-maximized="0" />
  <metadata
     id="metadata7">
    <rdf:RDF>
      <cc:Work
         rdf:about="">
        <dc:format>image/svg+xml</dc:format>
        <dc:type
           rdf:resource="http://purl.org/dc/dcmitype/StillImage" />
        <dc:title></dc:title>
      </cc:Work>
    </rdf:RDF>
  </metadata>
  <g
     inkscape:label="Layer 1"
     inkscape:groupmode="layer"
     id="layer1"
     transform="translate(0,-352.36218)">
    <path
       style="fill:#000000;fill-opacity:0.05882353000000000;fill-rule:evenodd;stroke:#ffffff;stroke-width:60;stroke-linecap:round;stroke-linejoin:miter;stroke-miterlimit:4;stroke-opacity:0.93725491;stroke-dasharray:none"
       d="m 410,449.36218 c -9.418,0 -17,7.582 -17,17 0,400.48249 0,123.49561 0,466 0,9.418 7.582,17 17,17 l 146,0 c 9.418,0 17,-7.582 17,-17 0,-421.40712 0,-156.26368 0,-466 0,-9.418 -7.582,-17 -17,-17 z"
       id="rect2985"
       inkscape:connector-curvature="0"
       sodipodi:nodetypes="sccssccss" />
    <path
       style="fill:#000000;fill-opacity:0.05882353000000000;fill-rule:evenodd;stroke:#ffffff;stroke-width:60;stroke-linecap:round;stroke-linejoin:miter;stroke-miterlimit:4;stroke-opacity:0.93725491;stroke-dasharray:none"
       d="m 126,449.36218 c -9.418,0 -17,7.582 -17,17 0,400.48249 0,123.49561 0,466 0,9.418 7.582,17 17,17 l 146,0 c 9.418,0 17,-7.582 17,-17 0,-421.40712 0,-156.26368 0,-466 0,-9.418 -7.582,-17 -17,-17 z"
       id="rect2985-5"
       inkscape:connector-curvature="0"
       sodipodi:nodetypes="sccssccss" />
  </g>
</svg>
